<svg xmlns="http://www.w3.org/2000/svg" viewBox="0 0 224.81 350.25"><defs><style>.cls-1{stroke:#000;stroke-miterlimit:10;}</style></defs><g id="Layer_2" data-name="Layer 2"><g id="hairs"><path class="cls-1" d="M211.65,162.58s.09-1.14.26-2.69c.36-3.48,1.05-9,1.74-8.31,1,1-6-26-6-26s0-4,1-4-3-9-4-9-1-7,1-9-4-7-4-7-4-8-2-11a29.58,29.58,0,0,1,3-4s-1-5-5-6,5-2,5-4c-2,0-4.46,5.32-12-6-2-3-3-4-6-3s-1-7-3-11-8-7-9-6-1-3,3-6-5,2-9,2-6-6-6-12-4.66-20.66-14-16c0,0-5,4-5,8s-11-13-18-16-26,2-23,2,7.36,5.55-.32,5.28S91.65,1.58,93.65.58s-19,7-22,16c-6,0-13,1-16,6s-17,1-17,1-1,10-5,10-18,7-20,13c7-3,7-3,7,6s-16,9-16,9,18,8,13,15-10,10-16,2c0,8,11,13,9,22s-9,1.64-9,1.64,8,2.36,9,9.36-5,9-2,13,7,7,6,11a81.59,81.59,0,0,0-2,18c0,7,5,21,5,21a76.12,76.12,0,0,1-4-23c0-12,7-33,16-49s28-30,42-35,38-8,57-5,28,9,38,16,13,12,15,15,6,26,6,26,15,6,22,30Z"/><path class="cls-1" d="M212.65,211.58s0,10-1,12-8,27-26,35c-2,3-3,28-2,30-3-2-10-15-10-15s1,16-1,19a20.43,20.43,0,0,1-5,5s5,2,4,5-10,7-8,9-14,3-19,6-8,7-13,7-11-1-14-1-4,1-8,3-20-19-20-23c-3-4-8,0-10-2s-10-14-14-12c-3.63,1.82-7.08-1.79-17-19-.43-.75-1.55-3.19-2-4-.6-1.06-4.37-7.84-5-9,0,3-1,23,3,27,2-1,2-3,3-2s2,8,6,13-2,7,9,12,12,5,14,11,4,8,10,11,9,7,18,9,7,1,13,5,0,5,12,4,27,3,34,2,16-4,21-6,4-6,6-12,1-17,3-16,0,1,5-6,4-11,9-15,4-5,8-7,3-7,5-11,5-6,3-13-5-20-5-22-2-6-1-7-2-5-2-9S212.65,211.58,212.65,211.58Z"/><path class="cls-1" d="M139.65,293.58l5,2s1,1.94-2.5,3.47-6.92,3.5-8.71,6-4.79,4.51-6.79,3.51-1,.14-2,2.07c-1-1.07-3-2.07-7-2.07s-8,2-9,0,3,1-2-2-1-5-1-5l3-2s27-3,29-5Z"/><path class="cls-1" d="M171.65,259.58c1,1,1,10,1,10s-6-8-8-7-13-3-13-3-38-3-38,1c-2,2-12,2-12,2s-16,9-22,19l4,16s-8-12-9-16,4-10,3-12,0-1,1-1,19-15,21-20c4-3,6-2,6-2s7.32.68,8.66-.16c6.34-3.84,8.34-.84,14.34,2.16,0,0,19,4,23,4s16,5,18,5Z"/><path class="cls-1" d="M104.13,128.57s8.52-4,11.52-3a39.06,39.06,0,0,0,5.6,1.41l2.33-5.3s9.07,3.89,14.07,3.89,9.36-3.89,9.36-3.89,7.64,3.89,9.64,3.89,10,1.84,16,6.42,7,5.58,7,5.58H172s-6.3-4-11.3-3-8-1-12,1-7,3-10,3-1,0-8,1-2-5-10,2-10,5-10,5-4,0-4,1-2-3-3-4-3-7-3-7l2,3-4-11Z"/><path class="cls-1" d="M77.65,144.58l2,15H72s-5.34-3-8.34-3-10.42,1-12.71,3-6.45,1.85-8.37,3.93-6.92,3.07-7.92,4.07-3,4-4,5-2.1,0-2,2l0,2-3-5s7-12,10-13,17-7.53,17-7.53l1.73-3.31s2.47,1.16,6.87,0,6.64-.84,9,0S77.65,144.58,77.65,144.58Z"/></g></g></svg>